<?xml version="1.0" encoding="utf-8"?>
<!-- Generator: Adobe Illustrator 26.0.1, SVG Export Plug-In . SVG Version: 6.00 Build 0)  -->
<svg version="1.1" id="Capa_1" xmlns="http://www.w3.org/2000/svg" xmlns:xlink="http://www.w3.org/1999/xlink" x="0px" y="0px"
	 viewBox="0 0 50 50" style="enable-background:new 0 0 50 50;" xml:space="preserve">
<style type="text/css">
	.st0{fill:#17CDF7;}
</style>
<path class="st0" d="M44,5H6C5.96,5,5.93,5,5.89,5C4.26,5.03,2.97,6.37,3,8v34c0,0.04,0,0.07,0,0.11c0.03,1.63,1.37,2.92,3,2.89h38
	c0.04,0,0.07,0,0.11,0c1.63-0.03,2.92-1.37,2.89-3V8c0-0.04,0-0.07,0-0.11C46.97,6.26,45.63,4.97,44,5z M6,35.12
	c0-0.04,0-0.08,0-0.12v-6c-0.03-0.52,0.36-0.97,0.88-1c0.04,0,0.08,0,0.12,0h1v-4c-0.03-0.52,0.37-0.97,0.89-1c0.04,0,0.08,0,0.11,0
	c0.52-0.03,0.97,0.36,1,0.88c0,0.04,0,0.08,0,0.12v4c0.52-0.03,0.97,0.37,1,0.89c0,0.04,0,0.08,0,0.11v6c0.03,0.52-0.37,0.97-0.89,1
	c-0.04,0-0.08,0-0.11,0H7C6.48,36.03,6.03,35.64,6,35.12z M43,10v30c0.03,0.52-0.37,0.97-0.89,1c-0.04,0-0.08,0-0.11,0H9
	c-0.52,0.03-0.97-0.37-1-0.89c0-0.04,0-0.08,0-0.11v-1c-0.03-0.52,0.37-0.97,0.89-1c0.04,0,0.08,0,0.11,0
	c0.52-0.03,0.97,0.37,1,0.89c0,0.04,0,0.08,0,0.11h31V11H10v2c0.52-0.03,0.97,0.37,1,0.89c0,0.04,0,0.07,0,0.11v6
	c0.03,0.52-0.37,0.97-0.89,1c-0.04,0-0.08,0-0.11,0H7c-0.52,0.03-0.97-0.36-1-0.88c0-0.04,0-0.08,0-0.12v-6
	c-0.03-0.52,0.37-0.97,0.89-1c0.04,0,0.08,0,0.11,0h1v-3C7.97,9.48,8.37,9.03,8.89,9C8.92,9,8.96,9,9,9h33
	c0.52-0.03,0.97,0.36,1,0.88C43,9.92,43,9.96,43,10z M21.8,22.2l-3.5-3.5c-0.39-0.37-0.4-0.98-0.03-1.37
	c0.01-0.01,0.02-0.02,0.03-0.03c0.37-0.39,0.98-0.4,1.37-0.03c0.01,0.01,0.02,0.02,0.03,0.03l3.5,3.5c1.71-1.07,3.89-1.07,5.6,0
	l3.5-3.5c0.37-0.39,0.98-0.4,1.37-0.03c0.01,0.01,0.02,0.02,0.03,0.03c0.39,0.37,0.4,0.98,0.03,1.37c-0.01,0.01-0.02,0.02-0.03,0.03
	l-3.5,3.5c1.07,1.71,1.07,3.89,0,5.6l3.5,3.5c0.39,0.37,0.4,0.98,0.04,1.36c-0.01,0.01-0.02,0.02-0.04,0.04
	c-0.37,0.39-0.98,0.4-1.36,0.04c-0.01-0.01-0.02-0.02-0.04-0.04l-3.5-3.5c-1.71,1.07-3.89,1.07-5.6,0l-3.5,3.5
	c-0.19,0.18-0.44,0.29-0.7,0.3c-0.26-0.01-0.51-0.12-0.7-0.3c-0.39-0.37-0.4-0.98-0.03-1.37c0.01-0.01,0.02-0.02,0.03-0.03l3.5-3.5
	C20.73,26.09,20.73,23.91,21.8,22.2z"/>
<circle id="Oval" class="st0" cx="26" cy="25" r="1"/>
</svg>
