<?xml version="1.0" encoding="utf-8"?>
<!-- Generator: Adobe Illustrator 26.0.1, SVG Export Plug-In . SVG Version: 6.00 Build 0)  -->
<svg version="1.1" id="Layer_1" xmlns="http://www.w3.org/2000/svg" xmlns:xlink="http://www.w3.org/1999/xlink" x="0px" y="0px"
	 viewBox="0 0 512 512" style="enable-background:new 0 0 512 512;" xml:space="preserve">
<style type="text/css">
	.st0{fill:#444343;}
</style>
<g>
	<path class="st0" d="M95.47,239.23c-4.25,0-8.38,0-12.67,0c-18.05-14.83-41.66-11.8-55.03,3.12
		c-14.27,15.92-13.67,39.08,0.98,54.04c14.45,14.76,37.25,15.63,53.81,2.07c4.23,0,8.45,0,12.78,0
		c-8.24,12.91-27.75,22.58-47.87,18.65c-23.98-4.69-38.41-24.78-39.68-44.66c-1.65-25.7,15.19-45.37,35.75-50.97
		C64.94,215.66,85.71,224.83,95.47,239.23z"/>
	<path class="st0" d="M340.5,290.69c-2.95,0-5.43,0-8.31,0c-0.55-9.33-1.1-18.59-1.65-27.85c-0.25-0.07-0.49-0.13-0.74-0.2
		c-4.17,9.29-8.34,18.57-12.57,27.99c-1.42,0-2.86,0-4.7,0c-4.1-9.11-8.3-18.44-12.5-27.76c-0.26,0.01-0.52,0.03-0.77,0.04
		c-0.56,9.22-1.11,18.43-1.68,27.78c-2.79,0-5.34,0-8.31,0c0.99-14.65,1.98-29.14,2.97-43.73c3.15,0,5.94,0,9.17,0
		c4.29,9.65,8.66,19.48,13.44,30.21c4.73-10.57,9.1-20.33,13.51-30.18c3,0,5.89,0,9.22,0C338.53,261.45,339.5,275.92,340.5,290.69z"
		/>
	<path class="st0" d="M435.02,262.74c0.13-1.36,0.22-2.37,0.33-3.6c2.42,0,4.76,0,7.17,0c0.06,0.08,0.29,0.25,0.29,0.41
		c-0.01,10.41,0.25,20.83-0.2,31.22c-0.22,5.04-3.39,8.96-8.05,11.14c-8.23,3.86-16.29,3.08-24.47-1.41
		c0.57-2.12,1.1-4.07,1.73-6.43c4.58,2.58,9.24,3.67,14.21,3.13c5.53-0.6,8.84-4.33,8.6-10.47c-3.18,3.57-6.85,4.88-11.23,4.53
		c-4.44-0.36-8.05-2.17-10.71-5.62c-5.08-6.59-4.45-17.4,1.19-23.05C419.33,257.13,427.23,257.1,435.02,262.74z M417.64,274.68
		c-0.07,5.86,3.28,9.59,8.65,9.64c5.08,0.05,8.6-3.77,8.63-9.37c0.04-5.81-3.44-9.68-8.69-9.66
		C421.07,265.3,417.71,268.97,417.64,274.68z"/>
	<path class="st0" d="M186.05,277.75c1.74,1.57,3.49,3.15,5.22,4.71c-7.64,10.41-23.98,11.99-34.14,3.48
		c-9.21-7.72-9.88-24-1.35-32.89c8.49-8.85,25.47-8.74,34.1,0.52c-1.58,1.66-3.18,3.34-4.97,5.22c-4.03-4.25-8.89-6.38-14.41-4.98
		c-3.04,0.77-6.38,2.38-8.43,4.64c-5.46,6.02-4.67,17.14,0.98,22.2C169.51,286.43,178.1,285.39,186.05,277.75z"/>
	<path class="st0" d="M372.24,262.89c0.17-1.5,0.29-2.59,0.43-3.8c2.45,0,4.81,0,7.4,0c0,10.52,0,20.98,0,31.57
		c-2.46,0-4.82,0-7.34,0c-0.17-1.25-0.33-2.41-0.5-3.66c-8.39,5.84-16.63,5.51-21.83-0.73c-5.44-6.52-5.08-17.45,0.76-23.54
		C356.64,257.03,364.88,256.97,372.24,262.89z M354.94,274.91c-0.01,5.68,3.39,9.43,8.52,9.42c5.28-0.02,8.77-3.84,8.75-9.62
		c-0.02-5.53-3.56-9.41-8.62-9.42C358.33,265.28,354.94,269.05,354.94,274.91z"/>
	<path class="st0" d="M211.45,291.26c-9.98,0.01-16.93-6.59-16.91-16.07c0.02-10.3,6.63-16.76,17.13-16.76
		c9.99,0.01,16.67,6.49,16.71,16.2C228.42,284.76,221.81,291.25,211.45,291.26z M220.06,274.8c0.01-5.75-3.22-9.41-8.4-9.5
		c-5.26-0.09-8.74,3.68-8.76,9.49c-0.02,5.84,3.35,9.51,8.74,9.53C216.72,284.34,220.05,280.57,220.06,274.8z"/>
	<path class="st0" d="M498,290.77c-2.63,0-4.94,0-7.71,0c0-3.11,0-6.19,0-9.26c0-2.81,0.01-5.63-0.02-8.44
		c-0.05-5.08-2.6-7.77-7.37-7.81c-4.91-0.04-7.56,2.71-7.58,7.93c-0.03,5.73-0.01,11.45-0.01,17.38c-2.63,0-5.1,0-7.83,0
		c0-10.4,0-20.84,0-31.45c2.47,0,4.84,0,7.37,0c0.16,0.96,0.03,2.74,0.22,3.88c0.49-0.26,1.2-1.3,1.55-1.57
		c5.51-5.43,17.21-3.54,20.68,3.98c0.3,0.65,0.65,1.36,0.66,2.05C498.01,275.15,498,282.84,498,290.77z"/>
	<path class="st0" d="M281.68,290.72c-2.67,0-5.05,0-7.94,0c0-1.99,0-4.02,0-6.04c0-4.17,0.07-8.34-0.03-12.51
		c-0.1-4.35-2.78-6.83-7.21-6.89c-4.55-0.06-7.43,2.49-7.52,6.93c-0.1,5-0.01,10.01-0.01,15.01c0,1.12,0,2.24,0,3.48
		c-2.73,0-5.1,0-7.74,0c0-10.4,0-20.85,0-31.53c2.36,0,4.79,0,7.34,0c0.13,0.94,0.25,1.82,0.43,3.21c3.46-2.88,7.05-4.27,11.31-3.94
		c6.32,0.49,10.98,4.48,11.27,10.78C281.94,276.28,281.68,283.36,281.68,290.72z"/>
	<path class="st0" d="M63.36,291.67c-4.34,0-8.37,0-13.09,0c11-12.17,21.61-23.91,32.31-35.75c4.13,0,8.34,0,13.21,0
		C84.66,268.19,73.94,280.01,63.36,291.67z"/>
	<path class="st0" d="M396.33,261.77c3.71-1.4,7.2-2.71,11.18-4.2c0,3.17,0,5.4,0,7.95c-1.17,0.19-2.25,0.38-3.34,0.55
		c-5.01,0.76-7.72,3.77-7.78,8.86c-0.06,5.19-0.01,10.39-0.01,15.72c-2.69,0-5.14,0-7.8,0c0-10.5,0-20.95,0-31.56
		c2.49,0,4.84,0,7.35,0C396.09,260.17,396.23,261.16,396.33,261.77z"/>
	<path class="st0" d="M75.75,285.11c7.12-7.91,13.82-15.34,20.48-22.75c4.22,0,8.26,0,13.03,0c-7.05,7.84-13.73,15.27-20.45,22.75
		C84.68,285.11,80.59,285.11,75.75,285.11z"/>
	<path class="st0" d="M242.73,259.15c0,10.6,0,20.94,0,31.46c-2.61,0-5.06,0-7.71,0c0-10.39,0-20.83,0-31.46
		C237.5,259.15,239.94,259.15,242.73,259.15z"/>
	<path class="st0" d="M458.98,290.67c-2.67,0-5.02,0-7.6,0c0-10.52,0-20.95,0-31.53c2.56,0,4.99,0,7.6,0
		C458.98,269.66,458.98,280.01,458.98,290.67z"/>
	<path class="st0" d="M243.38,249.12c-0.06,2.95-1.96,4.7-5.01,4.63c-2.55-0.06-4.36-1.99-4.37-4.66c-0.02-2.86,2.09-4.93,4.92-4.82
		C241.74,244.37,243.44,246.21,243.38,249.12z"/>
	<path class="st0" d="M459.85,248.82c0.08,2.7-1.84,4.79-4.51,4.92c-2.84,0.14-4.82-1.6-4.97-4.36c-0.15-2.91,1.75-5.01,4.61-5.08
		C457.74,244.23,459.77,246.12,459.85,248.82z"/>
	<path class="st0" d="M103.05,291.67c-4.34,0-8.37,0-13.09,0c11-12.17,21.61-23.91,32.31-35.75c4.13,0,8.34,0,13.21,0
		C124.35,268.19,113.63,280.01,103.05,291.67z"/>
</g>
</svg>
