<?xml version="1.0" encoding="utf-8"?>
<!-- Generator: Adobe Illustrator 26.0.1, SVG Export Plug-In . SVG Version: 6.00 Build 0)  -->
<svg version="1.1" id="Capa_1" xmlns="http://www.w3.org/2000/svg" xmlns:xlink="http://www.w3.org/1999/xlink" x="0px" y="0px"
	 viewBox="0 0 50 50" style="enable-background:new 0 0 50 50;" xml:space="preserve">
<style type="text/css">
	.st0{fill:#17CDF7;}
</style>
<circle id="Oval" class="st0" cx="24.89" cy="15.59" r="1"/>
<circle id="Oval-2" class="st0" cx="28.89" cy="15.59" r="1"/>
<circle id="Oval-3" class="st0" cx="32.89" cy="15.59" r="1"/>
<circle id="Oval-4" class="st0" cx="16.89" cy="15.59" r="1"/>
<circle id="Oval-5" class="st0" cx="20.89" cy="15.59" r="1"/>
<path id="Shape" class="st0" d="M24.89,40.59c0.52,0.03,0.97-0.37,1-0.89c0-0.04,0-0.08,0-0.11v-1c1.64,0.01,2.97-1.31,2.99-2.95
	c0-0.36-0.06-0.72-0.19-1.05c-0.44-1.22-1.61-2.02-2.9-2h-1.9c-0.52,0.03-0.97-0.37-1-0.89c0-0.04,0-0.08,0-0.11
	c-0.03-0.52,0.37-0.97,0.89-1c0.04,0,0.08,0,0.11,0h3c0.52,0.03,0.97-0.37,1-0.89c0-0.04,0-0.08,0-0.11c0.03-0.52-0.37-0.97-0.89-1
	c-0.04,0-0.08,0-0.11,0h-1v-1c0.03-0.52-0.37-0.97-0.89-1c-0.04,0-0.08,0-0.11,0c-0.52-0.03-0.97,0.37-1,0.89c0,0.04,0,0.08,0,0.11
	v1c-1.64-0.01-2.97,1.31-2.99,2.95c0,0.36,0.06,0.72,0.19,1.05c0.44,1.22,1.61,2.02,2.9,2h1.9c0.52-0.03,0.97,0.37,1,0.89
	c0,0.04,0,0.08,0,0.11c0.03,0.52-0.37,0.97-0.89,1c-0.04,0-0.08,0-0.11,0h-3c-0.52-0.03-0.97,0.37-1,0.89c0,0.04,0,0.08,0,0.11
	c-0.03,0.52,0.37,0.97,0.89,1c0.04,0,0.08,0,0.11,0h1v1c-0.03,0.52,0.37,0.97,0.89,1C24.81,40.6,24.85,40.6,24.89,40.59z"/>
<path id="Shape-2" class="st0" d="M39.89,15.59v-1c0-1.1-0.9-2-2-2h-26c-0.53,0-1.03,0.22-1.4,0.6c-0.38,0.37-0.6,0.87-0.6,1.4v1
	c0.03,0.52-0.36,0.97-0.88,1c-0.04,0-0.08,0-0.12,0c-0.52,0.03-0.97-0.36-1-0.88c0-0.04,0-0.08,0-0.12v-1
	c-0.03-1.06,0.41-2.09,1.2-2.8c0.71-0.79,1.74-1.23,2.8-1.2h5.6c-0.39-0.59-0.6-1.29-0.6-2c0.01-2.21,1.79-3.99,4-4
	c0.52-0.03,0.97,0.37,1,0.89c0,0.04,0,0.08,0,0.11c0.03,0.52-0.37,0.97-0.89,1c-0.04,0-0.08,0-0.11,0c-1.1,0-2,0.9-2,2s0.9,2,2,2
	h1.6c-0.39-0.59-0.6-1.29-0.6-2c0-2.21,1.79-4,4-4s4,1.79,4,4c0,0.71-0.21,1.41-0.6,2h8.6c2.21,0.01,3.99,1.79,4,4v1
	c0,0.55-0.45,1-1,1S39.89,16.15,39.89,15.59z"/>
<path id="Shape-3" class="st0" d="M43.09,36.19l-4.5-11.9c-0.49-1.24-0.73-2.57-0.7-3.9v-4.8c0-0.55-0.45-1-1-1s-1,0.45-1,1v4.8
	c0.01,1.57,0.28,3.12,0.8,4.6l4.5,11.9c0.49,1.24,0.73,2.57,0.7,3.9v3.8c0,1.1-0.9,2-2,2h-30c-1.1,0-2-0.9-2-2v-3.8
	c-0.01-1.33,0.23-2.65,0.7-3.9l4.5-11.9c0.52-1.48,0.79-3.03,0.8-4.6v-4.8c0.03-0.52-0.37-0.97-0.89-1c-0.04,0-0.08,0-0.11,0
	c-0.52-0.03-0.97,0.37-1,0.89c0,0.04,0,0.08,0,0.11v4.8c0.01,1.33-0.23,2.65-0.7,3.9l-4.5,11.9c-0.52,1.48-0.79,3.03-0.8,4.6v3.8
	c0.01,2.21,1.79,3.99,4,4h30c2.21-0.01,3.99-1.79,4-4v-3.8C43.88,39.23,43.61,37.67,43.09,36.19z"/>
<path id="Shape-4" class="st0" d="M12.39,38.59l4.5-11.6c0.18-0.52-0.09-1.1-0.6-1.3c-0.52-0.18-1.1,0.09-1.3,0.6l-4.5,11.6
	c-0.4,1.02-0.6,2.1-0.6,3.2v2.5c-0.03,0.52,0.37,0.97,0.89,1c0.04,0,0.08,0,0.11,0h5c0.55,0,1-0.45,1-1s-0.45-1-1-1h-4v-1.5
	C11.9,40.24,12.07,39.39,12.39,38.59z"/>
</svg>
