<?xml version="1.0" encoding="utf-8"?>
<!-- Generator: Adobe Illustrator 26.0.1, SVG Export Plug-In . SVG Version: 6.00 Build 0)  -->
<svg version="1.1" id="Capa_1" xmlns="http://www.w3.org/2000/svg" xmlns:xlink="http://www.w3.org/1999/xlink" x="0px" y="0px"
	 viewBox="0 0 512 512" style="enable-background:new 0 0 512 512;" xml:space="preserve">
<style type="text/css">
	.st0{fill:#444343;}
</style>
<path class="st0" d="M425.78,231.45c0,11.6,0,21.71,0,31.98c-2.94,0-5.49,0-8.26,0c0-14.64,0-29.26,0-44.08c3.14,0,6.2,0,9.53,0
	c5.64,9.83,11.35,19.8,17.84,31.11c0-11.35,0-21.1,0-31.07c2.9,0,5.45,0,8.29,0c0,14.5,0,29.11,0,43.97c-2.82,0-5.74,0-9.05,0
	C438.36,253.3,432.44,243.02,425.78,231.45z"/>
<path class="st0" d="M341.33,236.66c9.9-5.78,12.72-21.42,28.49-16.98c-6.09,5.62-12.15,11.2-18.24,16.81
	c6.97,9.51,13.18,17.98,19.68,26.86c-4.03,0-7.56,0-11.6,0c-4.37-6.11-8.98-12.56-13.88-19.42c-1.57,1.84-2.93,3.43-4.69,5.5
	c0,4.16,0,8.98,0,13.99c-3.01,0-5.8,0-8.79,0c0-14.73,0-29.35,0-44.11c3,0,5.8,0,9.03,0C341.33,225.19,341.33,230.94,341.33,236.66z
	"/>
<path class="st0" d="M377.07,219.27c10.74,0,21.3,0,32.09,0c0,2.42,0,4.71,0,7.41c-7.62,0-15.28,0-23.19,0c0,3.32,0,6.26,0,9.56
	c6.85,0,13.89,0,21.19,0c0,2.65,0,4.94,0,7.69c-6.93,0-13.96,0-21.21,0c0,4.12,0,7.79,0,11.81c8,0,16.05,0,24.35,0
	c0,2.74,0,5.13,0,7.69c-11.06,0-22.01,0-33.24,0C377.07,248.9,377.07,234.27,377.07,219.27z"/>
<path class="st0" d="M266.77,226.69c0,12.45,0,24.45,0,36.68c-3.16,0-5.95,0-9.11,0c0-12.02,0-24.02,0-36.46c-4.62,0-8.89,0-13.35,0
	c0-2.75,0-5.04,0-7.55c11.82,0,23.6,0,35.62,0c0,2.29,0,4.58,0,7.33C275.67,226.69,271.4,226.69,266.77,226.69z"/>
<path class="st0" d="M201.92,255.58c0,2.9,0,5.21,0,7.77c-10.32,0-20.57,0-31.01,0c0-14.6,0-29.12,0-43.92c2.71,0,5.5,0,8.62,0
	c0,11.79,0,23.67,0,36.15C187.12,255.58,194.43,255.58,201.92,255.58z"/>
<path class="st0" d="M107.11,194.67c-25.6,0.32-46.94,21.78-46.67,46.95c0.28,25.94,21.75,46.75,47.85,46.37
	c25.19-0.37,46.04-21.72,45.73-46.84C153.69,215.32,132.54,194.35,107.11,194.67z M128.15,263.48c-1.07-2.96-2.11-5.84-3.15-8.71
	c-5.28,0-10.25,0-15.65,0c-1.03,2.73-2.11,5.59-3.27,8.66c-9.4,0-18.82,0-28.76,0c5.29-14.75,10.52-29.33,15.79-44.03
	c3.19,0,6.26,0,9.84,0c-4.15,11.55-8.24,22.95-12.46,34.7c3.19,0,5.96,0,9.08,0c4.15-11.44,8.33-23,12.61-34.79c3.33,0,6.3,0,9.8,0
	c5.26,14.54,10.58,29.21,16,44.18C134.47,263.48,131.41,263.48,128.15,263.48z"/>
<path class="st0" d="M303.85,217.74c-13.31,0-21.23,8.72-21.28,23.42c-0.05,14.73,7.79,23.58,20.98,23.66
	c13.4,0.09,21.61-8.62,21.7-22.99C325.33,226.68,317.4,217.74,303.85,217.74z M303.65,257.08c-9.81-0.23-11.97-7.71-11.91-15.78
	c0.05-8.17,2.14-15.81,12.29-15.74c10.18,0.07,11.68,7.91,12.31,15.85C315.66,249.66,313.8,257.32,303.65,257.08z"/>
<path class="st0" d="M231.23,219.26c-3.69,0-6.91,0-10.49,0c-5.31,14.8-10.52,29.36-15.85,44.2c3.47,0,6.43,0,9.43,0
	c1.1-3.1,2.17-6.09,3.19-8.94c5.75,0,11.08,0,16.6,0c1.05,3.06,2.08,6.05,3.07,8.94c3.37,0,6.33,0,9.75,0
	C241.61,248.5,236.4,233.82,231.23,219.26z M219.99,246.82c1.96-5.89,3.82-11.47,6.01-18.06c2.11,6.6,3.88,12.13,5.77,18.06
	C227.65,246.82,224.08,246.82,219.99,246.82z"/>
<path class="st0" d="M121.65,245.35c-3.27,0-5.95,0-8.96,0c1.42-3.96,2.74-7.65,4.45-12.44
	C118.82,237.56,120.16,241.26,121.65,245.35z"/>
</svg>
