<?xml version="1.0" encoding="utf-8"?>
<!-- Generator: Adobe Illustrator 26.0.1, SVG Export Plug-In . SVG Version: 6.00 Build 0)  -->
<svg version="1.1" id="Capa_1" xmlns="http://www.w3.org/2000/svg" xmlns:xlink="http://www.w3.org/1999/xlink" x="0px" y="0px"
	 viewBox="0 0 500 500" style="enable-background:new 0 0 500 500;" xml:space="preserve">
<style type="text/css">
	.st0{fill:#FFFFFF;}
</style>
<g>
	<path class="st0" d="M136.85,386.1c28.64,14.09,40.34-14.57,15.72-38.84c-24.26-24.6-52.95-12.95-38.84,15.72
		C118.38,372.45,127.34,381.43,136.85,386.1z"/>
	<path class="st0" d="M318.17,352.97c-8.6-3.71-20.83,0.77-27.3,10.02c-6.47,9.24-4.75,19.74,3.86,23.46
		c8.61,3.71,20.83-0.77,27.3-10.02C328.5,367.18,326.78,356.68,318.17,352.97z"/>
	<path class="st0" d="M289.75,119.25c0.94,0.57,1.88,1.13,2.82,1.72c20.52,11.17,37.25-10.34,17.43-22.5
		C292.31,88.75,269.24,104.89,289.75,119.25z"/>
	<path class="st0" d="M358.02,371.09C358.02,371.09,358.02,371.09,358.02,371.09c-4.66,43.5-31.57,76.33-78.51,83.35
		c56.81-7.92,97.14-31.81,107.69-89.03C388.43,341.4,358.44,349.99,358.02,371.09z"/>
	<path class="st0" d="M431.73,335.33c6.56-28.89,4.35-59.06-4.44-88.37c4.29-6.18,8.81-13.92,13.13-21.95
		c12.31,39.64,12.58,79.92-2.55,113.9c9.09-19.74,15.31-39.21,17.7-59.45c0,0.01,0,0.01,0,0.02c0-2.21,2.48-15.89-0.02-37.27
		c-7.76-106.04-85.13-189.65-197.9-197.91c-21.38-2.5-35.06-0.02-37.27-0.02c0.01,0,0.01,0,0.02,0
		c-20.24,2.39-39.71,8.61-59.45,17.7c81.48-36.3,213.29,15.87,268.14,133.74c-4.56,9.37-8.63,17.17-12.16,23.46
		c-14.57-32.51-37.45-63.36-59.64-84.35c-16.53-15.26-36.54,6.38-21.53,19.15c0.73,0.62,4.51,4.27,5.19,4.94
		c77.77,79.75,102.54,198.46,34.85,255.71C404.48,392.3,423.43,371.86,431.73,335.33z"/>
	<path class="st0" d="M69.76,230.99C69.76,230.99,69.76,230.99,69.76,230.99c18.7-16.92,22.08-50.08,3.18-37.15
		c-31.81,26.01-41,77.32-10.05,141.63C42.91,290.91,47.73,252.49,69.76,230.99z"/>
	<path class="st0" d="M204.99,294.84c-9.73-9.81-19.95-17.88-30.25-24.3c2-14.11,6.24-26.41,11.83-38.75
		c36.87,20.22,67.22,52.61,84.75,87.74c0-0.01,0-0.03,0-0.04c11.82,27.11,44.5,2.99,35.69-18.24
		c-10.94-22.36-25.28-42.35-41.88-59.78c0.29-0.41,0.59-0.82,0.88-1.23c8.56-11.98,15.5-21.68,23.45-31.01
		c0.19,0.19,0.39,0.37,0.59,0.56c28.12,28.55,50.52,63.64,61.53,100.73c0,0,0,0,0.01,0c5.69,25.03,39.2,12.44,31.54-15.6
		c-25.95-95.6-118.14-173.29-205.14-183.45c8.33-8.55,17.25-16.03,27-24.5c15.14,2.44,30.55,7.15,34.54,8.67
		c17.57,6.75,37.15-14.45,18.52-21.49c-30.92-10.12-62.94-13.01-93.53-6.06c-36.53,8.3-56.97,27.25-79.29,55.94
		c20.8-24.59,49.71-36.97,81.91-39.05c-8.22,7.67-16.4,16.22-23.69,26.26c-61.84,7.03-89.5,47.72-98.05,109.06
		c13.42-89.68,120.26-105.24,214.32-36.35c-8.49,9.97-15.76,20.03-24.02,31.57c-26.61-19.86-59.58-36.01-92.47-39.6
		c-34.08-2.76-45.46,33.42-13.94,37.19c0,0,0,0,0,0c7.97,0.75,15.15,2.22,22.68,4.33c-5.2,11.67-9.63,23.92-12.48,37.51
		c-51.77-13.65-89.33,16.13-73.75,73.86c3.06,9.68,15.33,10.54,14.98,2.31c-1.14-12.5,1.91-24.7,11.64-32.7
		c21.6-17.75,59.56-3.71,86.28,22.76c26.47,26.72,40.51,64.68,22.76,86.28c-23.54,28.64-85.8,2.55-111.45-46.82c0,0-0.01,0-0.01,0
		c-3.48-7.52-12.69-4.63-10.21,0.56c20.86,35.04,60.06,68.21,101.56,75.12C259.01,449.3,271.56,360.89,204.99,294.84z"/>
	<path class="st0" d="M278.01,417.87c-1.05,1.85-2.2,3.61-3.41,5.31c0,0,0,0,0,0.01c-19.88,27.74-61.36,35.67-110.24,13.76
		c67.64,32.55,120.87,20.69,145.45-15.18C321.76,402.27,291.1,402.23,278.01,417.87z"/>
</g>
</svg>
