<?xml version="1.0" encoding="utf-8"?>
<!-- Generator: Adobe Illustrator 26.0.1, SVG Export Plug-In . SVG Version: 6.00 Build 0)  -->
<svg version="1.1" id="Capa_1" xmlns="http://www.w3.org/2000/svg" xmlns:xlink="http://www.w3.org/1999/xlink" x="0px" y="0px"
	 viewBox="0 0 50 50" style="enable-background:new 0 0 50 50;" xml:space="preserve">
<style type="text/css">
	.st0{fill:#17CDF7;}
	.st1{fill:#00FFFF;}
	.st2{font-family:'NexaLight';}
	.st3{font-size:8.7032px;}
</style>
<g>
	<path id="Shape" class="st0" d="M45.79,23.76h-1v-5c0.03-0.52-0.37-0.97-0.89-1c-0.04,0-0.08,0-0.11,0h-1v-5
		c0.03-0.52-0.37-0.97-0.89-1c-0.04,0-0.08,0-0.11,0h-1v-5c0.03-0.52-0.37-0.97-0.89-1c-0.04,0-0.08,0-0.11,0h-28
		c-0.52-0.03-0.97,0.37-1,0.89c0,0.04,0,0.08,0,0.11v5c-0.03,0.52,0.37,0.97,0.89,1c0.04,0,0.08,0,0.11,0
		c0.52,0.03,0.97-0.37,1-0.89c0-0.04,0-0.08,0-0.11v-4h26v4h-16c-0.52-0.03-0.97,0.37-1,0.89c0,0.04,0,0.08,0,0.11
		c-0.03,0.52,0.37,0.97,0.89,1c0.04,0,0.08,0,0.11,0h18v4h-9c-0.55,0-1,0.45-1,1c0,0.55,0.45,1,1,1h11v4h-8c-0.55,0-1,0.45-1,1
		s0.45,1,1,1h10v4h-9c-0.55,0-1,0.45-1,1s0.45,1,1,1h3v4h-5c-0.55,0-1,0.45-1,1s0.45,1,1,1h9v4h-14c-0.55,0-1,0.45-1,1s0.45,1,1,1
		h15c0.52,0.03,0.97-0.37,1-0.89c0-0.04,0-0.08,0-0.11v-6c0.03-0.52-0.37-0.97-0.89-1c-0.04,0-0.08,0-0.11,0h-3v-4h5
		c0.52,0.03,0.97-0.37,1-0.89c0-0.04,0-0.08,0-0.11v-6c0.03-0.52-0.37-0.97-0.89-1C45.86,23.76,45.82,23.76,45.79,23.76z"/>
	<path id="Shape-2" class="st0" d="M2.79,28.76c0-8.28,6.72-15,15-15s15,6.72,15,15s-6.72,15-15,15c-8.27,0.01-14.99-6.69-15-14.96
		C2.79,28.79,2.79,28.77,2.79,28.76z"/>
	<path id="Shape-3" class="st1" d="M6.79,28.76c0-6.08,4.92-11,11-11s11,4.92,11,11s-4.92,11-11,11c-6.06,0.02-10.98-4.88-11-10.94
		C6.79,28.8,6.79,28.78,6.79,28.76z"/>
	<text transform="matrix(1.0594 0 0 1 8.1122 31.8331)" class="st0 st2 st3">NCU</text>
</g>
</svg>
