<?xml version="1.0" encoding="utf-8"?>
<!-- Generator: Adobe Illustrator 26.0.1, SVG Export Plug-In . SVG Version: 6.00 Build 0)  -->
<svg version="1.1" id="Capa_1" xmlns="http://www.w3.org/2000/svg" xmlns:xlink="http://www.w3.org/1999/xlink" x="0px" y="0px"
	 viewBox="0 0 50 50" style="enable-background:new 0 0 50 50;" xml:space="preserve">
<style type="text/css">
	.st0{fill:#17CDF7;}
	.st1{fill:#FFFFFF;}
	.st2{font-family:'NexaLight';}
	.st3{font-size:6.4183px;}
</style>
<g id="atom" transform="translate(0)">
	<path id="Shape" class="st0" d="M20.78,26.58c0-2.21,1.79-4,4-4s4,1.79,4,4s-1.79,4-4,4S20.78,28.79,20.78,26.58z"/>
	<path id="Shape-2" class="st0" d="M23.46,48.37c-0.53-0.16-0.83-0.72-0.67-1.25c0.16-0.53,0.72-0.83,1.25-0.67
		c0.01,0,0.03,0.01,0.04,0.01c0.22,0.07,0.46,0.11,0.69,0.11c2.03,0,4.21-3.11,5.58-8.23c-1.9-0.57-3.77-1.26-5.58-2.06
		c-1.82,0.8-3.68,1.49-5.58,2.06c0.11,0.43,0.24,0.85,0.36,1.26c0.08,0,0.15-0.02,0.22-0.02c1.67-0.01,3.02,1.33,3.03,3
		c0.01,1.67-1.33,3.02-3,3.03c-1.67,0.01-3.02-1.33-3.03-3c0-0.83,0.33-1.63,0.94-2.2c-0.16-0.5-0.31-1.02-0.45-1.55
		c-1.8,0.44-3.64,0.68-5.49,0.71c-3.22,0-5.44-0.91-6.39-2.45C4.73,36,4.59,34.66,4.99,33.44c0.56-2.08,2.23-4.46,4.71-6.86
		c-2.47-2.39-4.15-4.77-4.7-6.86c-0.4-1.23-0.26-2.57,0.39-3.68c0.48-0.75,1.17-1.34,1.98-1.69c0.51-0.22,1.1,0.02,1.31,0.53
		c0.21,0.48,0,1.04-0.46,1.28c-0.46,0.19-0.85,0.52-1.13,0.93c-0.34,0.65-0.4,1.42-0.16,2.12c0.47,1.77,2,3.88,4.25,6.03
		c1.53-1.31,3.14-2.52,4.83-3.62c0.15-1.79,0.41-3.57,0.77-5.33c-0.15-0.04-0.31-0.07-0.46-0.1c-0.88,1.41-2.73,1.84-4.14,0.95
		c-1.41-0.88-1.84-2.73-0.95-4.14s2.73-1.84,4.14-0.95c0.77,0.48,1.28,1.29,1.39,2.19c0.16,0.03,0.31,0.07,0.47,0.1
		c1.58-5.95,4.31-9.75,7.56-9.75s5.97,3.78,7.55,9.72c6.17-1.43,10.43-0.55,11.85,1.74c0.31,0.46,0.18,1.08-0.27,1.39
		c-0.46,0.31-1.08,0.18-1.39-0.27c-0.01-0.02-0.03-0.04-0.04-0.06c-1.01-1.64-4.68-1.98-9.69-0.8c0.36,1.76,0.61,3.54,0.76,5.32
		c1.68,1.1,3.29,2.3,4.82,3.61c0.33-0.31,0.64-0.63,0.94-0.94c-0.94-1.36-0.6-3.23,0.77-4.17c1.36-0.94,3.23-0.6,4.17,0.77
		c0.94,1.36,0.6,3.23-0.77,4.17c-0.5,0.35-1.1,0.53-1.71,0.53c-0.28,0-0.55-0.05-0.82-0.13c-0.35,0.38-0.71,0.75-1.1,1.12
		c2.48,2.4,4.15,4.78,4.71,6.86c0.4,1.23,0.26,2.57-0.39,3.68c-0.95,1.54-3.17,2.45-6.39,2.45c-1.84-0.03-3.67-0.26-5.46-0.7
		c-1.58,5.94-4.31,9.71-7.55,9.71C24.33,48.58,23.89,48.51,23.46,48.37z"/>
	<text transform="matrix(1.0594 0 0 1 17.6934 29.9336)" class="st1 st2 st3">NCU</text>
</g>
</svg>
