<?xml version="1.0" encoding="utf-8"?>
<!-- Generator: Adobe Illustrator 25.0.1, SVG Export Plug-In . SVG Version: 6.00 Build 0)  -->
<svg version="1.1" id="Capa_1" xmlns="http://www.w3.org/2000/svg" xmlns:xlink="http://www.w3.org/1999/xlink" x="0px" y="0px"
	 viewBox="0 0 512 512" style="enable-background:new 0 0 512 512;" xml:space="preserve">
<style type="text/css">
	.st0{fill:#53A9EA;}
	.st1{fill:#FFFFFF;}
</style>
<circle class="st0" cx="256" cy="256" r="216"/>
<g id="twitter_3_">
	<path class="st1" d="M385.5,184.9c-9,4-18.7,6.7-28.9,7.9c10.4-6.2,18.4-16.1,22.1-27.8c-9.7,5.8-20.5,10-32,12.2
		c-9.2-9.8-22.3-15.9-36.7-15.9c-27.8,0-50.3,22.5-50.3,50.3c0,4,0.4,7.8,1.3,11.5c-41.8-2.1-78.9-22.1-103.7-52.6
		c-4.3,7.4-6.8,16.1-6.8,25.3c0,17.5,8.9,32.9,22.4,41.9c-8.2-0.3-16-2.5-22.8-6.3v0.6c0,24.4,17.4,44.7,40.4,49.4
		c-4.2,1.1-8.7,1.8-13.3,1.8c-3.2,0-6.4-0.3-9.5-0.9c6.4,20,25,34.5,47,35c-17.2,13.5-38.9,21.5-62.5,21.5c-4.1,0-8.1-0.2-12-0.7
		c22.3,14.3,48.7,22.6,77.2,22.6c92.6,0,143.2-76.7,143.2-143.2c0-2.2-0.1-4.3-0.1-6.5C370.2,203.9,378.8,195,385.5,184.9z"/>
</g>
</svg>
