<?xml version="1.0" encoding="utf-8"?>
<!-- Generator: Adobe Illustrator 26.0.1, SVG Export Plug-In . SVG Version: 6.00 Build 0)  -->
<svg version="1.1" id="Capa_1" xmlns="http://www.w3.org/2000/svg" xmlns:xlink="http://www.w3.org/1999/xlink" x="0px" y="0px"
	 viewBox="0 0 50 50" style="enable-background:new 0 0 50 50;" xml:space="preserve">
<style type="text/css">
	.st0{fill:#17CDF7;}
</style>
<path id="Shape" class="st0" d="M44.29,3.21h-38c-1.63-0.03-2.97,1.26-3,2.89c0,0.04,0,0.07,0,0.11v26c-0.03,1.63,1.26,2.97,2.89,3
	c0.04,0,0.07,0,0.11,0h17c0.55,0,1-0.45,1-1s-0.45-1-1-1h-17c-0.52,0.03-0.97-0.37-1-0.89c0-0.04,0-0.08,0-0.11v-26
	c-0.03-0.52,0.37-0.97,0.89-1c0.04,0,0.08,0,0.11,0h38c0.52-0.03,0.97,0.37,1,0.89c0,0.04,0,0.08,0,0.11v26
	c0.03,0.52-0.37,0.97-0.89,1c-0.04,0-0.08,0-0.11,0h-1.6l0.3-0.3c0.3-0.38,0.3-0.92,0-1.3l-1.2-1.4l0.4-1.8
	c0.09-0.52-0.21-1.02-0.7-1.2l-1.7-0.6l-0.5-1.6c-0.18-0.49-0.68-0.79-1.2-0.7l-1.8,0.4l-1.3-1.2c-0.38-0.3-0.92-0.3-1.3,0l-1.4,1.2
	l-1.8-0.4c-0.52-0.09-1.02,0.21-1.2,0.7l-0.6,1.7l-1.6,0.5c-0.49,0.18-0.79,0.68-0.7,1.2l0.4,1.8l-1.2,1.3c-0.3,0.38-0.3,0.92,0,1.3
	l1.2,1.3l-0.4,1.8c-0.09,0.52,0.21,1.02,0.7,1.2l1.7,0.6l0.6,1.7c0.18,0.49,0.68,0.79,1.2,0.7l1.8-0.4l1.3,1.2
	c0.38,0.3,0.92,0.3,1.3,0l1.3-1.2l1,0.2v4.6l-2.6-1.3c-0.29-0.1-0.61-0.1-0.9,0l-2.5,1.4v-2.4c0-0.55-0.45-1-1-1s-1,0.45-1,1v4
	c0.02,0.36,0.21,0.69,0.5,0.9c0.3,0.2,0.7,0.2,1,0l3.6-1.8l3.6,1.8c0,0.1,0.1,0.1,0.3,0.1c0.17-0.02,0.34-0.06,0.5-0.1
	c0.31-0.19,0.5-0.53,0.5-0.9v-7.1c0.02-0.49-0.32-0.91-0.8-1l-2.3-0.5c-0.31-0.08-0.65-0.01-0.9,0.2l-1.1,1l-1.1-1
	c-0.25-0.22-0.59-0.29-0.9-0.2l-1.4,0.3l-0.4-1.4c-0.09-0.29-0.31-0.51-0.6-0.6l-1.4-0.4l0.3-1.4c0.08-0.31,0.01-0.65-0.2-0.9
	l-1-1.1l1-1.1c0.22-0.25,0.29-0.59,0.2-0.9l-0.3-1.4l1.4-0.4c0.29-0.09,0.51-0.31,0.6-0.6l0.4-1.4l1.4,0.3
	c0.31,0.08,0.65,0.01,0.9-0.2l1.1-1l1.1,1c0.25,0.22,0.59,0.29,0.9,0.2l1.4-0.3l0.4,1.4c0.09,0.29,0.31,0.51,0.6,0.6l1.4,0.4
	l-0.3,1.4c-0.08,0.31-0.01,0.65,0.2,0.9l1,1.1l-1,1.1c-0.22,0.25-0.29,0.59-0.2,0.9l0.5,2.3c0.12,0.55,0.67,0.9,1.22,0.78
	c0.53-0.12,0.88-0.64,0.78-1.18l-0.2-0.8h2.3c1.63,0.03,2.97-1.26,3-2.89c0-0.04,0-0.07,0-0.11v-26c0.03-1.63-1.26-2.97-2.89-3
	C44.37,3.21,44.33,3.21,44.29,3.21z"/>
<path id="Shape-2" class="st0" d="M30.29,32.21c0-2.21,1.79-4,4-4c2.21,0,4,1.79,4,4c0,2.21-1.79,4-4,4
	C32.09,36.2,30.3,34.42,30.29,32.21z"/>
<path id="Shape-3" class="st0" d="M31.29,7.21h-12c-0.52-0.03-0.97,0.37-1,0.89c0,0.04,0,0.08,0,0.11c-0.03,0.52,0.37,0.97,0.89,1
	c0.04,0,0.08,0,0.11,0h12c0.52,0.03,0.97-0.37,1-0.89c0-0.04,0-0.08,0-0.11c0.03-0.52-0.37-0.97-0.89-1
	C31.37,7.21,31.33,7.21,31.29,7.21z"/>
<path id="Shape-4" class="st0" d="M26.29,18.21c0.03-0.52-0.37-0.97-0.89-1c-0.04,0-0.08,0-0.11,0h-15c-0.52-0.03-0.97,0.37-1,0.89
	c0,0.04,0,0.08,0,0.11c-0.03,0.52,0.37,0.97,0.89,1c0.04,0,0.08,0,0.11,0h15c0.52,0.03,0.97-0.37,1-0.89
	C26.3,18.29,26.3,18.25,26.29,18.21z"/>
<path id="Shape-5" class="st0" d="M22.29,22.21c0.03-0.52-0.37-0.97-0.89-1c-0.04,0-0.08,0-0.11,0h-11c-0.52-0.03-0.97,0.37-1,0.89
	c0,0.04,0,0.08,0,0.11c-0.03,0.52,0.37,0.97,0.89,1c0.04,0,0.08,0,0.11,0h11c0.52,0.03,0.97-0.37,1-0.89
	C22.3,22.29,22.3,22.25,22.29,22.21z"/>
<path id="Shape-6" class="st0" d="M29.29,12.21c0.03-0.52-0.37-0.97-0.89-1c-0.04,0-0.08,0-0.11,0h-6c-0.52-0.03-0.97,0.37-1,0.89
	c0,0.04,0,0.08,0,0.11c-0.03,0.52,0.37,0.97,0.89,1c0.04,0,0.08,0,0.11,0h6c0.52,0.03,0.97-0.37,1-0.89
	C29.3,12.29,29.3,12.25,29.29,12.21z"/>
<path id="Shape-7" class="st0" d="M29.29,19.21h6c0.52,0.03,0.97-0.37,1-0.89c0-0.04,0-0.08,0-0.11c0.03-0.52-0.37-0.97-0.89-1
	c-0.04,0-0.08,0-0.11,0h-6c-0.52-0.03-0.97,0.37-1,0.89c0,0.04,0,0.08,0,0.11c-0.03,0.52,0.37,0.97,0.89,1
	C29.22,19.21,29.26,19.21,29.29,19.21z"/>
<path id="Shape-8" class="st0" d="M16.09,28.21c-0.27,0.01-0.52-0.1-0.7-0.3l-1-1c-1.1-1.16-2.94-1.2-4.1-0.1
	c-0.03,0.03-0.07,0.07-0.1,0.1l-0.6,0.6c-0.39,0.37-0.4,0.98-0.03,1.37c0.01,0.01,0.02,0.02,0.03,0.03c0.37,0.39,0.98,0.4,1.37,0.03
	c0.01-0.01,0.02-0.02,0.03-0.03l0.6-0.6c0.37-0.39,0.98-0.4,1.37-0.03c0.01,0.01,0.02,0.02,0.03,0.03l1,1
	c0.55,0.58,1.31,0.9,2.1,0.9h2.2c0.52,0.03,0.97-0.37,1-0.89c0-0.04,0-0.08,0-0.11c0.03-0.52-0.37-0.97-0.89-1
	c-0.04,0-0.08,0-0.11,0H16.09z"/>
<path id="Shape-9" class="st0" d="M29.29,22.21c0.03-0.52-0.37-0.97-0.89-1c-0.04,0-0.08,0-0.11,0h-3c-0.52-0.03-0.97,0.37-1,0.89
	c0,0.04,0,0.08,0,0.11c-0.03,0.52,0.37,0.97,0.89,1c0.04,0,0.08,0,0.11,0h3c0.52,0.03,0.97-0.37,1-0.89
	C29.3,22.29,29.3,22.25,29.29,22.21z"/>
</svg>
